<svg xmlns="http://www.w3.org/2000/svg" width="100%" viewBox="0 0 45.43 47.92" fill="currentColor">
  <g>
    <path d="M33.03 40.66c-2 0-3.63 1.62-3.63 3.63 0 2 1.62 3.63 3.63 3.63 2 0 3.63-1.62 3.63-3.63 0-2-1.62-3.63-3.63-3.63M12.11 39.25c2.45-2.11 6.08-2.11 8.53 0l8.04.06c2.45-2.11 6.08-2.11 8.53 0h1.86l2.18-6.88-33.21-.06 2.12 6.88h1.95ZM35.98 9.19h-8.4V0h-5.16v9.19h-8.37L25 19.01l10.98-9.82ZM16.54 40.66c-2 0-3.63 1.62-3.63 3.63s1.62 3.63 3.63 3.63 3.63-1.62 3.63-3.63c0-2-1.62-3.63-3.63-3.63"></path>
    <path d="M7.02 29.4 0 9.68h3.51l3.34 8.94h9.42l8.7 7.31 8.25-7.35h12.21L41.92 29.4H7.02z"></path>
  </g>
</svg>